<mxfile host="app.diagrams.net" agent="Mozilla/5.0 (Windows NT 10.0; Win64; x64) AppleWebKit/537.36 (KHTML, like Gecko) Chrome/137.0.0.0 Safari/537.36" version="26.2.9">
  <diagram name="Page-1" id="y1LmKqWuCfo0jfO8O99y">
    <mxGraphModel dx="788" dy="451" grid="1" gridSize="10" guides="1" tooltips="1" connect="1" arrows="1" fold="1" page="1" pageScale="1" pageWidth="850" pageHeight="1100" math="0" shadow="0">
      <root>
        <mxCell id="0" />
        <mxCell id="1" parent="0" />
        <mxCell id="0DCb0yFS71eKRbzgUNM8-1" value="&lt;h1 style=&quot;margin-top: 0px;&quot;&gt;AutoLetterGeneration&lt;/h1&gt;&lt;p&gt;Problem :&lt;/p&gt;&lt;p&gt;Writing letters for permissions is easy but writing them using letter heads is hard and also need of word and other platforms ar required.&lt;/p&gt;" style="text;html=1;whiteSpace=wrap;overflow=hidden;rounded=0;" vertex="1" parent="1">
          <mxGeometry x="90" y="20" width="480" height="120" as="geometry" />
        </mxCell>
        <mxCell id="0DCb0yFS71eKRbzgUNM8-2" value="WEBSITE" style="whiteSpace=wrap;html=1;aspect=fixed;" vertex="1" parent="1">
          <mxGeometry x="300" y="160" width="160" height="160" as="geometry" />
        </mxCell>
        <mxCell id="0DCb0yFS71eKRbzgUNM8-3" value="Letter Head" style="shape=note;whiteSpace=wrap;html=1;backgroundOutline=1;darkOpacity=0.05;" vertex="1" parent="1">
          <mxGeometry x="80" y="280" width="80" height="100" as="geometry" />
        </mxCell>
        <mxCell id="0DCb0yFS71eKRbzgUNM8-4" value="AI EXTENSION" style="shape=process;whiteSpace=wrap;html=1;backgroundOutline=1;" vertex="1" parent="1">
          <mxGeometry x="600" y="170" width="120" height="60" as="geometry" />
        </mxCell>
      </root>
    </mxGraphModel>
  </diagram>
</mxfile>
